# xmcd
#
# Track frame offsets:
#	210
#	15401
#	32357
#	45279
#	61475
#	77564
#	89198
#	105175
#	124800
#	138918
#	155904
#	170473
#	194720
#
# Disc length: 2773 seconds
#
# Revision: 0
# Processed by: cddbd v1.4PL0 Copyright (c) Steve Scherf et al.
# Submitted via: dBpowerAMP V4.0
#
DISCID=a30ad30d
DTITLE=Elbert West - Livin' the Life
DYEAR=2000
DGENRE=Country
TTITLE0=Crawlin' Time
TTITLE1=Side of the Road
TTITLE2=Diddley
TTITLE3=Neon Light
TTITLE4=(This Ones's Gonna Leave a Mark
TTITLE5=Unpredictable
TTITLE6=Livin' the Life
TTITLE7=Robin Loves to Hear Me Sing
TTITLE8=My Last Resort
TTITLE9=Sinner
TTITLE10=Middle of the line
TTITLE11=Everything that Hes Not
TTITLE12=Kiss my lips - Goodbye
EXTD=
EXTT0=
EXTT1=
EXTT2=
EXTT3=
EXTT4=
EXTT5=
EXTT6=
EXTT7=
EXTT8=
EXTT9=
EXTT10=
EXTT11=
EXTT12=
PLAYORDER=
